<svg width="288" height="288" viewBox="0 0 288 288" fill="none" xmlns="http://www.w3.org/2000/svg">
<g clip-path="url(#clip0_33_2)">
<circle cx="144" cy="146" r="98.5" fill="#FDFDFD" stroke="#CECECE"/>
<line x1="93" y1="171" x2="194.922" y2="171" stroke="#F9892B" stroke-width="4"/>
<path d="M67.3674 196C66.9342 196 66.5337 195.895 66.1662 195.685C65.8117 195.475 65.5294 195.193 65.3194 194.838C65.1093 194.471 65.0043 194.07 65.0043 193.637V193.086H66.5994V193.637C66.5994 193.847 66.6716 194.031 66.816 194.188C66.9735 194.333 67.1573 194.405 67.3674 194.405H76.8197C77.0297 194.405 77.207 194.333 77.3514 194.188C77.5089 194.031 77.5877 193.847 77.5877 193.637V190.466C77.5877 190.256 77.5089 190.079 77.3514 189.935C77.207 189.79 77.0297 189.718 76.8197 189.718H67.3674C66.9342 189.718 66.5337 189.613 66.1662 189.403C65.8117 189.18 65.5294 188.891 65.3194 188.537C65.1093 188.182 65.0043 187.788 65.0043 187.355V184.185C65.0043 183.751 65.1093 183.358 65.3194 183.003C65.5294 182.635 65.8117 182.347 66.1662 182.137C66.5337 181.927 66.9342 181.822 67.3674 181.822H76.8197C77.2529 181.822 77.6468 181.927 78.0012 182.137C78.3688 182.347 78.6576 182.635 78.8677 183.003C79.0777 183.358 79.1828 183.751 79.1828 184.185V184.736H77.5877V184.185C77.5877 183.975 77.5089 183.797 77.3514 183.653C77.207 183.495 77.0297 183.417 76.8197 183.417H67.3674C67.1573 183.417 66.9735 183.495 66.816 183.653C66.6716 183.797 66.5994 183.975 66.5994 184.185V187.355C66.5994 187.565 66.6716 187.742 66.816 187.887C66.9735 188.031 67.1573 188.103 67.3674 188.103H76.8197C77.2529 188.103 77.6468 188.215 78.0012 188.438C78.3688 188.648 78.6576 188.93 78.8677 189.285C79.0777 189.639 79.1828 190.033 79.1828 190.466V193.637C79.1828 194.07 79.0777 194.471 78.8677 194.838C78.6576 195.193 78.3688 195.475 78.0012 195.685C77.6468 195.895 77.2529 196 76.8197 196H67.3674ZM81.2951 196V181.822H83.4809L89.3689 188.832L95.2569 181.822H97.4428V196H95.8477V183.633L89.3689 191.333L82.8902 183.633V196H81.2951ZM101.888 196C101.455 196 101.054 195.895 100.687 195.685C100.332 195.475 100.05 195.193 99.84 194.838C99.6299 194.471 99.5249 194.07 99.5249 193.637V184.185C99.5249 183.751 99.6299 183.358 99.84 183.003C100.05 182.635 100.332 182.347 100.687 182.137C101.054 181.927 101.455 181.822 101.888 181.822H111.34C111.774 181.822 112.167 181.927 112.522 182.137C112.889 182.347 113.178 182.635 113.388 183.003C113.598 183.358 113.703 183.751 113.703 184.185V193.637C113.703 194.07 113.598 194.471 113.388 194.838C113.178 195.193 112.889 195.475 112.522 195.685C112.167 195.895 111.774 196 111.34 196H101.888ZM101.888 194.405H111.34C111.55 194.405 111.728 194.333 111.872 194.188C112.03 194.031 112.108 193.847 112.108 193.637V184.185C112.108 183.975 112.03 183.797 111.872 183.653C111.728 183.495 111.55 183.417 111.34 183.417H101.888C101.678 183.417 101.494 183.495 101.337 183.653C101.192 183.797 101.12 183.975 101.12 184.185V193.637C101.12 193.847 101.192 194.031 101.337 194.188C101.494 194.333 101.678 194.405 101.888 194.405ZM115.892 196V181.822H117.506V188.103H122.075L127.353 181.822H129.401V181.841L123.473 188.911L129.42 195.98V196H127.353L122.075 189.718H117.506V196H115.892ZM131.604 196V181.822H144.542V183.417H133.199V188.103H142.316V189.718H133.199V194.405H144.542V196H131.604Z" fill="black"/>
<path d="M149.004 196C148.571 196 148.171 195.895 147.803 195.685C147.449 195.475 147.166 195.193 146.956 194.838C146.746 194.471 146.641 194.07 146.641 193.637V184.185C146.641 183.751 146.746 183.358 146.956 183.003C147.166 182.635 147.449 182.347 147.803 182.137C148.171 181.927 148.571 181.822 149.004 181.822H160.78V183.417H149.004C148.794 183.417 148.61 183.495 148.453 183.653C148.309 183.797 148.236 183.975 148.236 184.185V193.637C148.236 193.847 148.309 194.031 148.453 194.188C148.61 194.333 148.794 194.405 149.004 194.405H160.78V196H149.004ZM174.806 196L170.179 190.486H172.266L176.914 195.98V196H174.806ZM162.834 196V181.841H174.649C175.082 181.841 175.476 181.953 175.83 182.176C176.198 182.386 176.487 182.668 176.697 183.023C176.907 183.377 177.012 183.771 177.012 184.204V188.359C177.012 188.793 176.907 189.186 176.697 189.541C176.487 189.895 176.198 190.184 175.83 190.407C175.476 190.617 175.082 190.722 174.649 190.722H164.429V196H162.834ZM165.197 189.108H174.649C174.859 189.108 175.036 189.035 175.181 188.891C175.338 188.747 175.417 188.569 175.417 188.359V184.204C175.417 183.994 175.338 183.817 175.181 183.673C175.036 183.515 174.859 183.436 174.649 183.436H165.197C164.987 183.436 164.803 183.515 164.645 183.673C164.501 183.817 164.429 183.994 164.429 184.204V188.359C164.429 188.569 164.501 188.747 164.645 188.891C164.803 189.035 164.987 189.108 165.197 189.108ZM179.123 196V184.185C179.123 183.751 179.228 183.358 179.438 183.003C179.648 182.635 179.93 182.347 180.285 182.137C180.652 181.927 181.053 181.822 181.486 181.822H190.938C191.372 181.822 191.765 181.927 192.12 182.137C192.487 182.347 192.776 182.635 192.986 183.003C193.196 183.358 193.301 183.751 193.301 184.185V196H191.706V190.821H180.718V196H179.123ZM180.718 189.226H191.706V184.185C191.706 183.975 191.628 183.797 191.47 183.653C191.326 183.495 191.148 183.417 190.938 183.417H181.486C181.276 183.417 181.092 183.495 180.935 183.653C180.79 183.797 180.718 183.975 180.718 184.185V189.226ZM195.584 196V181.822H208.522V183.417H197.18V188.103H206.297V189.718H197.18V196H195.584ZM215.561 196V183.417H209.259V181.822H223.438V183.417H217.156V196H215.561Z" fill="#F9892B"/>
<path d="M154.923 165.895C154.923 162.619 154.277 159.375 153.022 156.349C151.768 153.323 149.929 150.573 147.611 148.257C145.294 145.941 142.542 144.104 139.514 142.85C136.485 141.597 133.239 140.952 129.961 140.952C126.683 140.952 123.437 141.597 120.409 142.85C117.381 144.104 114.629 145.941 112.311 148.257C109.993 150.573 108.154 153.323 106.9 156.349C105.646 159.375 105 162.619 105 165.895H108.544C108.544 163.084 109.098 160.301 110.174 157.705C111.251 155.108 112.828 152.749 114.817 150.761C116.806 148.774 119.167 147.198 121.765 146.122C124.364 145.047 127.149 144.493 129.961 144.493C132.774 144.493 135.559 145.047 138.157 146.122C140.756 147.198 143.117 148.774 145.106 150.761C147.094 152.749 148.672 155.108 149.748 157.705C150.824 160.301 151.378 163.084 151.378 165.895H154.923Z" fill="#0C0C0C"/>
<path d="M143.816 146.066C144.303 144.032 144.331 141.914 143.897 139.868C143.463 137.822 142.578 135.898 141.306 134.237C140.035 132.575 138.409 131.217 136.546 130.263C134.684 129.308 132.632 128.779 130.54 128.716C128.448 128.653 126.368 129.056 124.451 129.897C122.534 130.738 120.829 131.995 119.46 133.577C118.09 135.159 117.091 137.026 116.534 139.042C115.977 141.058 115.876 143.173 116.24 145.233L119.694 144.624C119.421 143.077 119.497 141.489 119.915 139.975C120.333 138.46 121.084 137.058 122.113 135.87C123.141 134.682 124.422 133.738 125.861 133.107C127.301 132.475 128.863 132.172 130.434 132.22C132.005 132.267 133.546 132.664 134.945 133.381C136.344 134.098 137.565 135.118 138.519 136.366C139.474 137.614 140.139 139.058 140.465 140.595C140.791 142.132 140.77 143.722 140.404 145.25L143.816 146.066Z" fill="#0C0C0C"/>
<path d="M126 101.255H123V131.255H126V101.255Z" fill="#0C0C0C"/>
<path d="M136 100.255H133V131.255H136V100.255Z" fill="#0C0C0C"/>
<path d="M179.063 119.157H175.694V126.502H179.063V119.157Z" fill="#0C0C0C"/>
<path d="M182.243 116.818C182.897 116.156 182.89 115.09 182.228 114.437C181.565 113.784 180.499 113.791 179.845 114.453L176.08 118.264C175.427 118.926 175.434 119.992 176.096 120.645C176.758 121.298 177.824 121.291 178.478 120.629L182.243 116.818Z" fill="#0C0C0C"/>
<path d="M148.346 134.818C149 134.156 154.5 125.255 152.5 122.755C151 122.255 146.5 131.755 145.948 132.453L142.183 136.264C141.53 136.926 141.537 137.991 142.199 138.645C142.861 139.298 143.928 139.291 144.581 138.629L148.346 134.818Z" fill="#0C0C0C"/>
<path d="M160.4 120.255C161.341 125.702 161.812 129.664 162.282 132.636M166.518 155.417C166.988 156.407 167.929 158.388 169.341 158.883C170.753 159.378 172.959 159.75 173.9 159.255" stroke="black" stroke-width="3"/>
<line x1="174" y1="142.334" x2="174.018" y2="128.334" stroke="black" stroke-width="2"/>
<line x1="180" y1="142.334" x2="180.018" y2="128.334" stroke="black" stroke-width="2"/>
<path d="M180.978 128.881C180.978 128.187 180.559 127.521 179.812 127.03C179.065 126.538 178.051 126.261 176.994 126.26C175.936 126.258 174.922 126.533 174.174 127.022C173.425 127.512 173.004 128.177 173.003 128.871L174.993 128.873C174.994 128.526 175.205 128.193 175.579 127.947C175.954 127.702 176.462 127.565 176.992 127.565C177.522 127.566 178.03 127.705 178.404 127.951C178.778 128.197 178.988 128.531 178.988 128.878L180.978 128.881Z" fill="black"/>
<path d="M180.978 141.88C180.977 142.574 180.556 143.238 179.807 143.728C179.059 144.217 178.044 144.491 176.987 144.49C175.93 144.488 174.916 144.212 174.169 143.72C173.422 143.229 173.003 142.563 173.003 141.87L174.993 141.872C174.993 142.22 175.203 142.553 175.577 142.799C175.951 143.045 176.459 143.184 176.989 143.185C177.518 143.185 178.027 143.048 178.402 142.803C178.776 142.558 178.987 142.225 178.988 141.877L180.978 141.88Z" fill="black"/>
<path d="M179 143.255H176V157.255H179V143.255Z" fill="#0C0C0C"/>
<path d="M164.197 152.753C164.806 155.926 166.04 158.356 166.953 158.18C167.867 158.004 168.113 155.289 167.504 152.115L163.994 133.832C163.384 130.658 162.15 128.228 161.237 128.404C160.324 128.58 160.078 131.296 160.687 134.469L164.197 152.753Z" fill="#0C0C0C"/>
<path d="M173.3 159.455C176.8 158.955 177.5 157.755 177.5 157.255" stroke="black" stroke-width="3"/>
<path d="M161.569 120.192C161.406 119.413 160.768 118.766 159.795 118.394C158.822 118.023 157.593 117.956 156.378 118.209C155.164 118.462 154.064 119.014 153.32 119.744C152.5 120.755 149.5 125.255 150 125.755L152.5 126.255C152.441 125.972 155.389 120.902 155.659 120.637C155.929 120.372 156.328 120.172 156.768 120.08C157.209 119.988 157.655 120.013 158.008 120.148C158.361 120.282 158.592 120.517 158.651 120.8L161.569 120.192Z" fill="black"/>
<path d="M137.933 101.255H121.067C120.478 101.255 120 100.807 120 100.255C120 99.7024 120.478 99.2546 121.067 99.2546H137.933C138.522 99.2546 139 99.7024 139 100.255C139 100.807 138.522 101.255 137.933 101.255Z" fill="#0C0C0C"/>
<path d="M141.483 120.255H117.517C116.679 120.255 116 119.807 116 119.255C116 118.702 116.679 118.255 117.517 118.255H141.483C142.321 118.255 143 118.702 143 119.255C143 119.807 142.321 120.255 141.483 120.255Z" fill="#0C0C0C"/>
<path d="M116.943 89.9378L121.463 99.9676C121.621 100.318 121.341 100.786 120.837 101.013C120.334 101.24 119.797 101.14 119.639 100.789L115.12 90.7595C114.962 90.4089 115.242 89.9408 115.745 89.7139C116.249 89.487 116.785 89.5873 116.943 89.9378Z" fill="#0C0C0C"/>
<path d="M116.52 115.582L118.204 119.317C118.262 119.448 117.902 119.738 117.398 119.965C116.895 120.191 116.439 120.27 116.38 120.139L114.697 116.404C114.638 116.273 114.999 115.983 115.502 115.757C116.006 115.53 116.462 115.452 116.52 115.582Z" fill="#0C0C0C"/>
<path d="M143.931 90.758L139.103 100.643C138.934 100.989 138.395 101.072 137.899 100.83C137.402 100.587 137.137 100.111 137.306 99.7653L142.133 89.8803C142.302 89.5348 142.841 89.4511 143.338 89.6935C143.834 89.9359 144.099 90.4125 143.931 90.758Z" fill="#0C0C0C"/>
<path d="M144.273 116.312L142.885 119.155C142.836 119.254 142.395 119.138 141.899 118.896C141.402 118.654 141.039 118.377 141.088 118.277L142.476 115.435C142.525 115.335 142.967 115.451 143.463 115.693C143.959 115.936 144.322 116.213 144.273 116.312Z" fill="#0C0C0C"/>
<path d="M142.371 91.2546H116.629C115.729 91.2546 115 90.8069 115 90.2546C115 89.7024 115.729 89.2546 116.629 89.2546H142.371C143.271 89.2546 144 89.7024 144 90.2546C144 90.8069 143.271 91.2546 142.371 91.2546Z" fill="#0C0C0C"/>
<path d="M134.57 90.7847H125.392C125.071 90.7847 124.811 90.541 124.811 90.2405C124.811 89.94 125.071 89.6963 125.392 89.6963H134.57C134.891 89.6963 135.151 89.94 135.151 90.2405C135.151 90.541 134.891 90.7847 134.57 90.7847Z" fill="#0C0C0C"/>
<path d="M123.631 84.4087L126.091 89.8666C126.177 90.0574 125.916 90.3609 125.509 90.5445C125.101 90.7281 124.701 90.7223 124.615 90.5315L122.156 85.0736C122.07 84.8828 122.33 84.5793 122.738 84.3957C123.145 84.2121 123.545 84.2179 123.631 84.4087Z" fill="#0C0C0C"/>
<path d="M137.834 85.0727L135.207 90.4519C135.115 90.6399 134.705 90.6284 134.291 90.4262C133.877 90.224 133.615 89.9077 133.707 89.7197L136.334 84.3405C136.426 84.1525 136.836 84.164 137.25 84.3662C137.664 84.5684 137.926 84.8847 137.834 85.0727Z" fill="#0C0C0C"/>
<path d="M137.007 86.0547H122.893C122.4 86.0547 122 85.6517 122 85.1547C122 84.6576 122.4 84.2547 122.893 84.2547H137.007C137.5 84.2547 137.9 84.6576 137.9 85.1547C137.9 85.6517 137.5 86.0547 137.007 86.0547Z" fill="#0C0C0C"/>
</g>
<defs>
<clipPath id="clip0_33_2">
<rect width="288" height="288" fill="white"/>
</clipPath>
</defs>
</svg>
